<svg id="Capa_1" data-name="Capa 1" xmlns="http://www.w3.org/2000/svg" viewBox="0 0 851.4 593.85"><defs><style>.cls-1{fill:#f2c051;}.cls-2{fill:#f4da45;}</style></defs><title>corona</title><path class="cls-1" d="M870.67,178,740.72,596.41a48.21,48.21,0,0,1-46,33.91H196.26a48.21,48.21,0,0,1-46.08-34L21.91,179.71c-8.39-27.23,25.39-47.43,45.41-27.16h0L174,260.54a27.24,27.24,0,0,0,38.76,0l106.65-108,78.13-79.1L426,44.57a27.24,27.24,0,0,1,38.76,0l28.52,28.89,78.13,79.1,106.65,108a27.24,27.24,0,0,0,38.76,0l106.65-108,1.93-1.92C845.6,130.62,879.09,150.92,870.67,178Z" transform="translate(-20.6 -36.47)"/><path class="cls-2" d="M522.17,600H356.79c-16,0-22.88-20.39-10.08-30.06L795,231.12c13.22-10,31.35,3.26,25.86,18.89L701.66,588.83A16.72,16.72,0,0,1,685.89,600Z" transform="translate(-20.6 -36.47)"/></svg>