<svg xmlns="http://www.w3.org/2000/svg" viewBox="0 0 719.61 612"><defs><style>.cls-1{fill:#c248ef;}.cls-2{fill:#c556f4;}.cls-3{fill:#f4da45;}.cls-4{fill:#ec56f4;}</style></defs><title>Recurso 1</title><g id="Capa_2" data-name="Capa 2"><g id="Capa_1-2" data-name="Capa 1"><path class="cls-1" d="M302,7.82,516.47,131.65a58.33,58.33,0,0,1,29.17,50.52V429.83a58.33,58.33,0,0,1-29.17,50.52L302,604.19a58.33,58.33,0,0,1-58.33,0L29.17,480.35A58.33,58.33,0,0,1,0,429.83V182.17a58.33,58.33,0,0,1,29.17-50.52L243.65,7.82A58.33,58.33,0,0,1,302,7.82Z"/><path class="cls-2" d="M516.48,131.65,302,7.82A58.25,58.25,0,0,0,272.61,0V612A58.25,58.25,0,0,0,302,604.18L516.48,480.35a58.35,58.35,0,0,0,29.16-50.52V182.17A58.35,58.35,0,0,0,516.48,131.65Z"/><polygon class="cls-3" points="719.36 401.13 719.61 400.88 719.61 401.38 719.36 401.13"/><path class="cls-4" d="M274.61,40.46V569c0,8.08,8.47,13.13,15.24,9.09L480.21,464.58c19.29-11.51,31.18-32.77,31.18-55.78V200.7c0-23-11.88-44.28-31.18-55.78L289.85,31.37C283.07,27.33,274.61,32.38,274.61,40.46Z"/></g></g></svg>